<mxfile host="app.diagrams.net" agent="Mozilla/5.0 (Windows NT 10.0; Win64; x64) AppleWebKit/537.36 (KHTML, like Gecko) Chrome/134.0.0.0 Safari/537.36" version="26.1.1" pages="2">
  <diagram name="Page-1" id="u4fMEPvA2ZcwdqPBGrDw">
    <mxGraphModel dx="1400" dy="1895" grid="1" gridSize="10" guides="1" tooltips="1" connect="1" arrows="1" fold="1" page="1" pageScale="1" pageWidth="850" pageHeight="1100" math="0" shadow="0">
      <root>
        <mxCell id="0" />
        <mxCell id="1" parent="0" />
        <mxCell id="b9ryZRNz-9yMnUXH7QSk-1" value="" style="rounded=0;whiteSpace=wrap;html=1;" vertex="1" parent="1">
          <mxGeometry x="160" y="-60" width="340" height="600" as="geometry" />
        </mxCell>
        <mxCell id="OqgXw5gTutb71DQCVkkO-1" value="&lt;font&gt;Manage User&lt;/font&gt;" style="ellipse;whiteSpace=wrap;html=1;fontFamily=Verdana;fontSize=16;" vertex="1" parent="1">
          <mxGeometry x="240" y="90" width="200" height="70" as="geometry" />
        </mxCell>
        <mxCell id="OqgXw5gTutb71DQCVkkO-2" value="Admin" style="shape=umlActor;verticalLabelPosition=bottom;verticalAlign=top;html=1;outlineConnect=0;fontSize=15;" vertex="1" parent="1">
          <mxGeometry x="40" y="280" width="50" height="100" as="geometry" />
        </mxCell>
        <mxCell id="OqgXw5gTutb71DQCVkkO-5" value="Feature Control/ Customization" style="ellipse;whiteSpace=wrap;html=1;fontFamily=Verdana;fontSize=16;" vertex="1" parent="1">
          <mxGeometry x="240" y="198" width="200" height="75" as="geometry" />
        </mxCell>
        <mxCell id="OqgXw5gTutb71DQCVkkO-7" value="Data Security&lt;div&gt;&amp;amp; Backup&lt;/div&gt;" style="ellipse;whiteSpace=wrap;html=1;fontFamily=Verdana;fontSize=16;" vertex="1" parent="1">
          <mxGeometry x="240" y="420" width="200" height="70" as="geometry" />
        </mxCell>
        <mxCell id="OqgXw5gTutb71DQCVkkO-44" style="edgeStyle=orthogonalEdgeStyle;rounded=0;orthogonalLoop=1;jettySize=auto;html=1;entryX=0.5;entryY=0;entryDx=0;entryDy=0;entryPerimeter=0;" edge="1" parent="1">
          <mxGeometry relative="1" as="geometry">
            <mxPoint x="1590.0526315789475" y="290" as="sourcePoint" />
            <mxPoint x="1590" y="290" as="targetPoint" />
          </mxGeometry>
        </mxCell>
        <mxCell id="OqgXw5gTutb71DQCVkkO-48" value="" style="endArrow=none;html=1;rounded=0;entryX=0;entryY=0.5;entryDx=0;entryDy=0;" edge="1" parent="1" target="OqgXw5gTutb71DQCVkkO-1">
          <mxGeometry width="50" height="50" relative="1" as="geometry">
            <mxPoint x="100" y="320" as="sourcePoint" />
            <mxPoint x="410" y="280" as="targetPoint" />
          </mxGeometry>
        </mxCell>
        <mxCell id="OqgXw5gTutb71DQCVkkO-50" value="Access Dashboard" style="ellipse;whiteSpace=wrap;html=1;fontFamily=Verdana;fontSize=16;" vertex="1" parent="1">
          <mxGeometry x="240" y="308" width="200" height="75" as="geometry" />
        </mxCell>
        <mxCell id="OqgXw5gTutb71DQCVkkO-51" value="" style="endArrow=none;html=1;rounded=0;entryX=0;entryY=0.5;entryDx=0;entryDy=0;" edge="1" parent="1" target="OqgXw5gTutb71DQCVkkO-5">
          <mxGeometry width="50" height="50" relative="1" as="geometry">
            <mxPoint x="100" y="320" as="sourcePoint" />
            <mxPoint x="250" y="135" as="targetPoint" />
          </mxGeometry>
        </mxCell>
        <mxCell id="OqgXw5gTutb71DQCVkkO-52" value="" style="endArrow=none;html=1;rounded=0;entryX=0;entryY=0.5;entryDx=0;entryDy=0;" edge="1" parent="1" target="OqgXw5gTutb71DQCVkkO-50">
          <mxGeometry width="50" height="50" relative="1" as="geometry">
            <mxPoint x="100" y="320" as="sourcePoint" />
            <mxPoint x="250" y="253" as="targetPoint" />
          </mxGeometry>
        </mxCell>
        <mxCell id="OqgXw5gTutb71DQCVkkO-53" value="" style="endArrow=none;html=1;rounded=0;entryX=0;entryY=0.5;entryDx=0;entryDy=0;" edge="1" parent="1" target="OqgXw5gTutb71DQCVkkO-7">
          <mxGeometry width="50" height="50" relative="1" as="geometry">
            <mxPoint x="100" y="320" as="sourcePoint" />
            <mxPoint x="240" y="353" as="targetPoint" />
          </mxGeometry>
        </mxCell>
        <mxCell id="OqgXw5gTutb71DQCVkkO-54" value="&lt;font&gt;Login / SIgnup&lt;/font&gt;" style="ellipse;whiteSpace=wrap;html=1;fontFamily=Verdana;fontSize=16;" vertex="1" parent="1">
          <mxGeometry x="240" y="-20" width="200" height="70" as="geometry" />
        </mxCell>
        <mxCell id="b9ryZRNz-9yMnUXH7QSk-2" value="" style="endArrow=none;html=1;rounded=0;entryX=0;entryY=0.5;entryDx=0;entryDy=0;" edge="1" parent="1" target="OqgXw5gTutb71DQCVkkO-54">
          <mxGeometry width="50" height="50" relative="1" as="geometry">
            <mxPoint x="100" y="320" as="sourcePoint" />
            <mxPoint x="730" y="270" as="targetPoint" />
          </mxGeometry>
        </mxCell>
      </root>
    </mxGraphModel>
  </diagram>
  <diagram id="6gYyELprc7t7YyEsE_Ca" name="Page-2">
    <mxGraphModel dx="1313" dy="745" grid="1" gridSize="10" guides="1" tooltips="1" connect="1" arrows="1" fold="1" page="1" pageScale="1" pageWidth="850" pageHeight="1100" math="0" shadow="0">
      <root>
        <mxCell id="0" />
        <mxCell id="1" parent="0" />
        <mxCell id="FsYaz_hNQqhsxuDEsvgG-7" value="" style="rounded=0;whiteSpace=wrap;html=1;" vertex="1" parent="1">
          <mxGeometry x="170" y="30" width="360" height="670" as="geometry" />
        </mxCell>
        <mxCell id="mxAQ_l-Ghd91KdsKqt3L-1" value="&lt;font&gt;User&lt;/font&gt;" style="shape=umlActor;verticalLabelPosition=bottom;verticalAlign=top;html=1;outlineConnect=0;fontFamily=Verdana;fontSize=15;" vertex="1" parent="1">
          <mxGeometry x="50" y="288" width="50" height="100" as="geometry" />
        </mxCell>
        <mxCell id="FsYaz_hNQqhsxuDEsvgG-1" value="Install Extension" style="ellipse;whiteSpace=wrap;html=1;fontFamily=Verdana;fontSize=16;flipV=1;" vertex="1" parent="1">
          <mxGeometry x="260" y="70" width="200" height="70" as="geometry" />
        </mxCell>
        <mxCell id="FsYaz_hNQqhsxuDEsvgG-2" value="&lt;font&gt;Authenticate&lt;/font&gt;" style="ellipse;whiteSpace=wrap;html=1;fontFamily=Verdana;fontSize=16;flipV=1;" vertex="1" parent="1">
          <mxGeometry x="260" y="176" width="200" height="70" as="geometry" />
        </mxCell>
        <mxCell id="FsYaz_hNQqhsxuDEsvgG-3" value="&lt;font&gt;Add Video Note&lt;/font&gt;" style="ellipse;whiteSpace=wrap;html=1;fontFamily=Verdana;fontSize=16;flipV=1;" vertex="1" parent="1">
          <mxGeometry x="260" y="282" width="200" height="70" as="geometry" />
        </mxCell>
        <mxCell id="FsYaz_hNQqhsxuDEsvgG-4" value="&lt;font&gt;View / Manage Notes&lt;/font&gt;" style="ellipse;whiteSpace=wrap;html=1;fontFamily=Verdana;fontSize=16;flipV=1;" vertex="1" parent="1">
          <mxGeometry x="260" y="388" width="200" height="70" as="geometry" />
        </mxCell>
        <mxCell id="FsYaz_hNQqhsxuDEsvgG-5" value="&lt;font&gt;Share Notes&lt;/font&gt;" style="ellipse;whiteSpace=wrap;html=1;fontFamily=Verdana;fontSize=16;flipV=1;" vertex="1" parent="1">
          <mxGeometry x="260" y="494" width="200" height="70" as="geometry" />
        </mxCell>
        <mxCell id="FsYaz_hNQqhsxuDEsvgG-6" value="&lt;font&gt;Give Feedback&lt;/font&gt;" style="ellipse;whiteSpace=wrap;html=1;fontFamily=Verdana;fontSize=16;flipV=1;" vertex="1" parent="1">
          <mxGeometry x="260" y="600" width="200" height="70" as="geometry" />
        </mxCell>
        <mxCell id="FsYaz_hNQqhsxuDEsvgG-9" value="" style="endArrow=none;html=1;rounded=0;entryX=0;entryY=0.5;entryDx=0;entryDy=0;" edge="1" parent="1" target="FsYaz_hNQqhsxuDEsvgG-1">
          <mxGeometry width="50" height="50" relative="1" as="geometry">
            <mxPoint x="110" y="350" as="sourcePoint" />
            <mxPoint x="400" y="250" as="targetPoint" />
          </mxGeometry>
        </mxCell>
        <mxCell id="N5yPSrTg8NSqzfqzfWyx-1" value="" style="endArrow=none;html=1;rounded=0;entryX=0.04;entryY=0.336;entryDx=0;entryDy=0;entryPerimeter=0;" edge="1" parent="1" target="FsYaz_hNQqhsxuDEsvgG-2">
          <mxGeometry width="50" height="50" relative="1" as="geometry">
            <mxPoint x="110" y="350" as="sourcePoint" />
            <mxPoint x="420" y="410" as="targetPoint" />
          </mxGeometry>
        </mxCell>
        <mxCell id="N5yPSrTg8NSqzfqzfWyx-2" value="" style="endArrow=none;html=1;rounded=0;entryX=0;entryY=0.5;entryDx=0;entryDy=0;exitX=0;exitY=0.5;exitDx=0;exitDy=0;" edge="1" parent="1" source="FsYaz_hNQqhsxuDEsvgG-6" target="FsYaz_hNQqhsxuDEsvgG-5">
          <mxGeometry width="50" height="50" relative="1" as="geometry">
            <mxPoint x="120" y="430" as="sourcePoint" />
            <mxPoint x="170" y="380" as="targetPoint" />
            <Array as="points">
              <mxPoint x="110" y="350" />
            </Array>
          </mxGeometry>
        </mxCell>
        <mxCell id="N5yPSrTg8NSqzfqzfWyx-3" value="" style="endArrow=none;html=1;rounded=0;entryX=0;entryY=0.5;entryDx=0;entryDy=0;exitX=0;exitY=0.5;exitDx=0;exitDy=0;" edge="1" parent="1" source="FsYaz_hNQqhsxuDEsvgG-4" target="FsYaz_hNQqhsxuDEsvgG-3">
          <mxGeometry width="50" height="50" relative="1" as="geometry">
            <mxPoint x="370" y="460" as="sourcePoint" />
            <mxPoint x="420" y="410" as="targetPoint" />
            <Array as="points">
              <mxPoint x="110" y="350" />
            </Array>
          </mxGeometry>
        </mxCell>
      </root>
    </mxGraphModel>
  </diagram>
</mxfile>
